Coordinates
version=1
nRows=7
nColumns=40
inDegrees=yes

Units are S.I. units (second, meters, Newtons, ...)
Angles are in degrees.

endheader
time	pelvis_tilt	pelvis_list	pelvis_rotation	pelvis_tx	pelvis_ty	pelvis_tz	hip_flexion_r	hip_adduction_r	hip_rotation_r	knee_angle_r	knee_angle_r_beta	ankle_angle_r	subtalar_angle_r	mtp_angle_r	hip_flexion_l	hip_adduction_l	hip_rotation_l	knee_angle_l	knee_angle_l_beta	ankle_angle_l	subtalar_angle_l	mtp_angle_l	lumbar_extension	lumbar_bending	lumbar_rotation	arm_flex_r	arm_add_r	arm_rot_r	elbow_flex_r	pro_sup_r	wrist_flex_r	wrist_dev_r	arm_flex_l	arm_add_l	arm_rot_l	elbow_flex_l	pro_sup_l	wrist_flex_l	wrist_dev_l
     31.18000000	     -5.48308414	     -5.40397446	      1.43003482	      1.06487579	      0.93200527	      0.39769791	     37.05378441	     -4.97378744	    -11.48472822	     61.46351715	     61.46351715	      7.77580210	    -17.49311034	      4.83413655	     18.44954126	     -6.27685096	     -8.82685056	     21.12899599	     21.12899599	     11.67594543	     -5.33129705	     -4.94321887	    -11.49416750	      3.37782204	      0.26667877	     -3.08133739	    -14.87632608	     -4.79868015	     59.78009077	     24.70987886	      0.00000000	      0.00000000	     19.37059613	    -13.61011643	      0.26656421	     36.11777897	     25.33516060	      0.00000000	      0.00000000
     31.19250000	     -5.31685780	     -5.44688755	      1.18134260	      1.06438965	      0.93234399	      0.39771455	     37.67517196	     -4.68220794	    -10.75266235	     59.01070015	     59.01070015	      7.72822971	    -17.04541502	      4.50806575	     17.70238975	     -6.32341199	     -8.73387949	     21.10644178	     21.10644178	     11.95778225	     -5.88846590	     -4.94180022	    -11.78168242	      3.52011608	      1.18581651	     -5.03902431	    -15.28058571	     -5.22745059	     56.60220009	     25.33760695	      0.00000000	      0.00000000	     20.81644249	    -13.41639414	      0.38104058	     37.54616713	     25.79440714	      0.00000000	      0.00000000
     31.20500000	     -5.21330841	     -5.44104409	      0.94591908	      1.06388073	      0.93255151	      0.39773983	     38.16869533	     -4.44192621	    -10.05962319	     56.25705386	     56.25705386	      7.30945296	    -16.59326020	      3.56121994	     17.02670471	     -6.29568917	     -8.59992741	     21.08057640	     21.08057640	     12.24635126	     -6.47668019	     -4.81712016	    -11.94942866	      3.54751697	      1.75994088	     -5.89976943	    -15.13187073	     -6.27757630	     50.92977235	     26.35165586	      0.00000000	      0.00000000	     21.93215386	    -13.46442561	      0.75294538	     39.28494157	     26.47871282	      0.00000000	      0.00000000
     31.21750000	     -5.10257776	     -5.52249482	      0.80615043	      1.06342497	      0.93279623	      0.39778147	     38.36998175	     -4.14118924	     -9.55531399	     53.10582421	     53.10582421	      6.46974683	    -16.17351592	      1.68204155	     16.37193960	     -6.35117848	     -8.39233054	     21.07088096	     21.07088096	     12.61468604	     -6.93224912	     -4.50007025	    -12.04339921	      3.71717374	      1.11642410	     -4.79957113	    -14.37875024	     -8.33952262	     42.76405552	     28.34150248	      0.00000000	      0.00000000	     22.03019444	    -14.42039090	      1.50737472	     41.66305922	     27.98501775	      0.00000000	      0.00000000
     31.23000000	     -5.13777880	     -5.31275711	      0.62279319	      1.06282279	      0.93238553	      0.39780845	     38.83176122	     -4.07453939	     -8.79147751	     50.21233654	     50.21233654	      6.28295140	    -15.32667859	      2.00068273	     15.98223391	     -6.15798381	     -8.51016817	     21.27514689	     21.27514689	     12.95784057	     -7.15283196	     -4.64264087	    -12.03145953	      3.61937241	      0.70615318	     -6.17196881	    -14.72035149	     -8.42337889	     41.91411385	     28.42627524	      0.00000000	      0.00000000	     22.89994911	    -14.96745237	      1.34531449	     42.17114216	     28.05680033	      0.00000000	      0.00000000
     31.24250000	     -4.96489054	     -5.54668467	      0.39238110	      1.06254384	      0.93270467	      0.39820635	     38.62768727	     -3.59839233	     -8.59040334	     46.70723360	     46.70723360	      5.49301739	    -14.20606195	      1.06037469	     15.16825096	     -6.36632435	     -8.22350963	     21.10960824	     21.10960824	     13.37017547	     -7.76872435	     -3.94045515	    -12.27608121	      3.89655644	      1.27581445	     -5.01634598	    -14.40384281	    -10.49713853	     32.04755552	     30.46018295	      0.00000000	      0.00000000	     23.08387397	    -15.20125773	      1.74401096	     46.23120912	     29.55470770	      0.00000000	      0.00000000
     31.25500000	     -4.90086612	     -5.58211853	      0.19943399	      1.06223921	      0.93251373	      0.39857841	     38.56931968	     -3.34370723	     -8.38454530	     43.38734690	     43.38734690	      5.09006978	    -12.66670179	      1.41288350	     14.54226589	     -6.42378758	     -8.20887366	     21.08851025	     21.08851025	     13.75181089	     -7.99848123	     -3.96622844	    -12.39419748	      4.03816943	      1.75650337	     -6.53124035	    -14.80045551	    -10.80559348	     30.48086541	     30.77383499	      0.00000000	      0.00000000	     23.96842587	    -15.15576185	      1.52757131	     47.63913468	     29.82158468	      0.00000000	      0.00000000
